<?xml version="1.0" encoding="UTF-8" standalone="no"?>
<svg
   version="1.0"
   width="512.000000pt"
   height="512.000000pt"
   viewBox="0 0 512.000000 512.000000"
   preserveAspectRatio="xMidYMid meet"
   id="svg6"
   sodipodi:docname="search_w.svg"
   inkscape:version="1.1.1 (3bf5ae0d25, 2021-09-20)"
   xmlns:inkscape="http://www.inkscape.org/namespaces/inkscape"
   xmlns:sodipodi="http://sodipodi.sourceforge.net/DTD/sodipodi-0.dtd"
   xmlns="http://www.w3.org/2000/svg"
   xmlns:svg="http://www.w3.org/2000/svg">
  <defs
     id="defs10" />
  <sodipodi:namedview
     id="namedview8"
     pagecolor="#ffffff"
     bordercolor="#666666"
     borderopacity="1.0"
     inkscape:pageshadow="2"
     inkscape:pageopacity="0.0"
     inkscape:pagecheckerboard="0"
     inkscape:document-units="pt"
     showgrid="false"
     inkscape:zoom="0.95507813"
     inkscape:cx="341.85685"
     inkscape:cy="341.85685"
     inkscape:window-width="1600"
     inkscape:window-height="837"
     inkscape:window-x="-8"
     inkscape:window-y="-8"
     inkscape:window-maximized="1"
     inkscape:current-layer="svg6" />
  <g
     transform="translate(0.000000,512.000000) scale(0.100000,-0.100000)"
     fill="#000000"
     stroke="none"
     id="g4"
     style="fill:#ffffff;fill-opacity:1">
    <path
       d="M2220 4689 c-453 -52 -881 -260 -1205 -584 -794 -794 -794 -2075 1 -2871 328 -329 764 -535 1234 -584 486 -50 1011 94 1400 384 l75 56 315 -315 c210 -209 327 -319 352 -330 136 -56 286 32 296 174 8 108 9 106 -339 456 l-319 320 55 74 c336 452 466 1042 354 1600 -175 869 -890 1524 -1771 1620 -112 13 -339 12 -448 0z m367 -429 c218 -19 388 -68 593 -172 433 -218 732 -611 842 -1105 19 -84 22 -129 22 -313 1 -186 -2 -229 -22 -317 -73 -332 -207 -579 -441 -814 -233 -233 -487 -371 -811 -441 -91 -19 -134 -22 -320 -22 -240 0 -314 11 -515 78 -521 175 -927 630 -1045 1174 -75 346 -31 711 125 1037 237 496 734 841 1285 894 122 12 162 12 287 1z"
       id="path2"
       style="fill:#ffffff;fill-opacity:1" />
  </g>
</svg>
